@@@@@@@@@@@@@@@@@@@@@@@@@@@@@@@@@@@@@@@@@@@@@@@@@@@@@@@@@@@@@@@@@@@@@@@@@@@@@@@@@@
@################################################################################@
@#                                                                              #@
@# 00      00                        00                 00                      #@
@# 00      00                        00                 00                      #@
@# 00      00                        00                 00                      #@
@# 00      00                        00                 00                      #@
@# 00      00                        00                 00                      #@
@# 00      00                        00  	        00                      #@
@# 00      00                        00 	        00                      #@
@# 00      00                        00   00  00     00 00 00	   00    0000   #@
@# 00      00      000        000    00  00   00     00 00 00	   00   0000000 #@
@# 0000000000    0000000    0000000  00 00    00     00 00 00	   00  00       #@
@# 0000000000   00     00  00     00 0000     00     00 00 00      00  00       #@
@# 00      00  00     000 00         00 00    00     00 00 00      00   000000  #@
@# 00      00 00     0000 00         00  00   00     00 00 00	   00        00 #@
@# 00      00 00    00 00  00     00 00   00  00     00 00 00	   00        00 #@
@# 00      00 000000   00   0000000  00    00  0000000  00  00000000   0000000  #@
@# 00      00  000     00     000    00     00  00000   00   00000       0000   #@
@#                                                                              #@
@################################################################################@
@@@@@@@@@@@@@@@@@@@@@@@@@@@@@@@@@@@@@@@@@@@@@@@@@@@@@@@@@@@@@@@@@@@@@@@@@@@@@@@@@@

Four socially troubled 18-year-olds from the south of England go on holiday to Malia.

Genre: Comedy
IMDB rating: 7.9/10 from 7,978 users
Directed by: Ben Palmer
Starring: James Buckley, Blake Harrison and Joe Thomas

Sources:
DVDR

Notes:
Encoded the video added a few filters to make it look nice :)


Greetz:
To all the people who have helped me :P you know who you are

Anything to offer email us @: 26k@hushmail.me

Video
ID                                       : 0
Format                                   : MPEG-4 Visual
Format profile                           : Advanced Simple@L5
Format settings, BVOP                    : 2
Format settings, QPel                    : No
Format settings, GMC                     : No warppoints
Format settings, Matrix                  : Default (H.263)
Muxing mode                              : Packed bitstream
Codec ID                                 : XVID
Codec ID/Hint                            : XviD
Duration                                 : 1h 32mn
Bit rate                                 : 2 295 Kbps
Width                                    : 720 pixels
Height                                   : 388 pixels
Display aspect ratio                     : 1.856
Frame rate                               : 25.000 fps
Color space                              : YUV
Chroma subsampling                       : 4:2:0
Bit depth                                : 8 bits
Scan type                                : Progressive
Compression mode                         : Lossy
Bits/(Pixel*Frame)                       : 0.329
Stream size                              : 1.49 GiB (83%)
Writing library                          : XviD 1.2.1 (UTC 2008-12-04)

Audio
ID                                       : 1
Format                                   : AC-3
Format/Info                              : Audio Coding 3
Mode extension                           : CM (complete main)
Codec ID                                 : 2000
Duration                                 : 1h 32mn
Bit rate mode                            : Constant
Bit rate                                 : 448 Kbps
Channel(s)                               : 6 channels
Channel positions                        : Front: L C R, Side: L R, LFE
Sampling rate                            : 48.0 KHz
Bit depth                                : 16 bits
Compression mode                         : Lossy
Stream size                              : 298 MiB (16%)
Alignment                                : Aligned on interleaves
Interleave, duration                     : 32 ms (0.80 video frame)
Interleave, preload duration             : 32 ms


[/code]
Screens:
[img]http://img94.imageshack.us/img94/5237/vlcsnap2011120923h23m15.png[/img]
[img]http://img694.imageshack.us/img694/5196/vlcsnap2011120923h23m29.png[/img]
[img]http://img835.imageshack.us/img835/3247/vlcsnap2011120923h23m37.png[/img]
[img]http://img854.imageshack.us/img854/269/vlcsnap2011120923h23m45.png[/img]
[img]http://img269.imageshack.us/img269/7868/vlcsnap2011120923h23m55.png[/img]

[img]http://img851.imageshack.us/img851/5503/26ks.jpg[/img]#
Thank you smallz for banner!